# xmcd
#
# Track frame offsets:
#	151
#	11712
#	21987
#	32066
#	43417
#	55390
#	65097
#	74824
#	85857
#	94580
#	106465
#
# Disc length: 1554 seconds
# Revision: 0
# Processed by: cddbd v1.5.2PL0 Copyright (c) Steve Scherf et al.
# Submitted via: dBpowerAMP V12.0
#
DISCID=a006100b
DTITLE=Buddy Meredith - Buddy Meredith´s First
DYEAR=1900
DGENRE=Country
TTITLE0=A New Girl In Town
TTITLE1=Down The Drain
TTITLE2=Love Only Hurts When It´s Over
TTITLE3=River Boat Gambler
TTITLE4=I Pledge Allegiance
TTITLE5=Sugar Land USA
TTITLE6=Just Call My Name
TTITLE7=Adccidental Touch
TTITLE8=Outcome Of My Income
TTITLE9=Country Wedding Bells
TTITLE10=Flop Top Beer
EXTD=
EXTT0=
EXTT1=
EXTT2=
EXTT3=
EXTT4=
EXTT5=
EXTT6=
EXTT7=
EXTT8=
EXTT9=
EXTT10=
PLAYORDER=
